# xmcd
#
# Track frame offsets:
# 150
# 12152
# 27265
# 39263
# 56187
# 69349
# 86356
# 100340
# 115733
# 131049
# 148139
#
# Disc length: 2121 seconds
#
# Revision: 1
# Processed by: cddbd v1.5.1PL0 Copyright (c) Steve Scherf et al.
# Submitted via: inCDius 2.0b9
#
DISCID=9008470b
DTITLE=Stuart Adamson - Weekends Were Made for Living
DYEAR=1900
DGENRE=
TTITLE0=Heart Examined
TTITLE1=Last Chance
TTITLE2=Safety in Numbers
TTITLE3=So Long
TTITLE4=Weekends Were Made for Living
TTITLE5=Two Wrongs Will Make it Right
TTITLE6=Everything We Owe is Mine
TTITLE7=What a Way to Start the Day
TTITLE8=I Don't Need Anything
TTITLE9=Talk to Me
TTITLE10=She Keeps Me on My Toes
EXTD=
EXTT0=
EXTT1=
EXTT2=
EXTT3=
EXTT4=
EXTT5=
EXTT6=
EXTT7=
EXTT8=
EXTT9=
EXTT10=
PLAYORDER=
